<svg width="40" height="68" viewBox="0 0 40 68" fill="none" xmlns="http://www.w3.org/2000/svg">
<path d="M19.5593 10.7734C19.5593 13.6888 21.9674 16.0518 24.9353 16.0518C27.9054 16.0518 30.3124 13.6888 30.3124 10.7734H19.5593Z" fill="white"/>
<path d="M35.9811 10.3658L34.2692 10.9751L34.2918 11.062C33.2191 11.7163 31.74 12.0885 32.626 10.4978C33.0743 9.70079 33.0057 8.91563 32.4769 8.25168L32.7579 8.09508L24.8377 3.22644L17.3829 8.14978L18.949 9.13659L18.95 9.97431H30.9441L30.942 9.10441L32.1143 8.45226C32.6131 9.0186 32.6635 9.61713 32.3031 10.2532C31.3227 11.9876 32.523 12.5894 34.398 11.491L34.4162 11.55L36.1335 10.9407L35.9811 10.3658Z" fill="white"/>
<path d="M21.3506 17.0569L24.9514 25.5671L29.3095 17.1427C26.7888 16.7651 23.7651 16.8445 21.3506 17.0569Z" fill="white"/>
<path d="M31.829 17.7594L24.7272 31.4933L18.7494 17.3668C18.624 17.3861 18.4899 17.4055 18.3772 17.4248C12.6505 11.0405 11.8031 4.84718 11.003 3.59221L15.2967 4.07382L15.5605 1.70976L0.263866 0L0 2.36299L5.95306 3.02909C5.07243 3.75418 4.56187 4.89545 4.9641 6.33276C7.14045 14.0964 11.3494 20.6255 17.414 25.6958L13.6609 54.7456H17.4934L17.5406 64.9355C17.5406 68.9246 23.7532 68.931 23.7532 64.9355V54.7456H26.01V64.9934C26.01 68.8334 32.0435 69.1681 32.0435 64.9934V54.7456H35.8867L33.8745 39.5047C35.7141 41.3593 39.7428 40.6213 39.6924 37.2586C39.6892 22.362 32.0575 17.8474 31.829 17.7594Z" fill="white"/>
</svg>
