<svg width="48" height="48" viewBox="0 0 48 48" fill="none" xmlns="http://www.w3.org/2000/svg">
<path d="M48 18.8537V31.1413C48 32.535 46.9488 33.6666 45.6491 33.6666H36.4998V43.5275C36.4998 46.0004 34.6343 48 32.3351 48H15.6649C13.3629 48 11.5002 45.9973 11.5002 43.5275V33.6666H2.35089C1.05553 33.6666 0 32.5381 0 31.1413V18.8537C0 17.4631 1.05122 16.3315 2.35089 16.3315H4.29679C2.53183 15.2846 1.32408 13.2927 1.32408 10.9755C1.32408 7.58065 3.88463 4.82868 7.04548 4.82868C10.2063 4.82868 12.7654 7.58065 12.7654 10.9755C12.7654 13.2927 11.5562 15.2846 9.79416 16.3315H11.7386C13.0326 16.3315 14.0881 17.4616 14.0881 18.8537V20.7485C14.5764 20.5327 15.1063 20.4109 15.6649 20.4109H19.1173C15.9866 18.5531 13.8439 15.0164 13.8439 10.9046C13.8439 4.88264 18.3906 0 24 0C29.6079 0 34.1546 4.88264 34.1546 10.9046C34.1546 15.0164 32.012 18.5531 28.8813 20.4109H32.3293C32.8923 20.4109 33.4222 20.5327 33.9105 20.7485V18.8537C33.9105 17.4631 34.9603 16.3315 36.2585 16.3315H38.2044C36.4394 15.2846 35.2317 13.2927 35.2317 10.9755C35.2317 7.58065 37.7922 4.82868 40.9531 4.82868C44.1125 4.82868 46.673 7.58065 46.673 10.9755C46.673 13.2927 45.4624 15.2846 43.7018 16.3315H45.6462C46.9473 16.3315 48 17.4616 48 18.8537Z" fill="white"/>
</svg>
